<svg width="40" height="40" viewBox="0 0 40 40" fill="none" xmlns="http://www.w3.org/2000/svg">
<path fill-rule="evenodd" clip-rule="evenodd" d="M34.5407 34.7894C31.2086 37.97 26.3843 39.3357 21.5378 38.5075L24.7487 35.4425C25.0047 35.1982 25.0047 34.8026 24.7487 34.5588C24.4927 34.3144 24.0789 34.3144 23.8229 34.5588L20.6119 37.6238C19.7457 32.9963 21.1757 28.3932 24.5078 25.2126C27.2028 22.6407 30.8714 21.2514 34.7411 21.2514C35.6565 21.2514 36.5836 21.3339 37.5114 21.4926L34.2991 24.5589C34.0431 24.8032 34.0431 25.1982 34.2991 25.4426C34.4268 25.5645 34.5944 25.6257 34.7621 25.6257C34.9297 25.6257 35.0973 25.5645 35.225 25.4426L38.4359 22.3776C39.3029 27.0045 37.8728 31.6088 34.5407 34.7894ZM39.6067 21.552C39.4731 20.9651 38.9899 20.5045 38.3744 20.3764C32.8934 19.2383 27.3645 20.717 23.5819 24.3282C19.7987 27.9395 18.2515 33.2182 19.4419 38.4488C19.5754 39.0363 20.0586 39.4969 20.6728 39.6244C21.8894 39.8769 23.1079 40 24.3094 40C28.5215 40 32.5228 38.4819 35.4666 35.6725C39.2492 32.0613 40.797 26.7826 39.6067 21.552Z" fill="#F8F9FB"/>
<path fill-rule="evenodd" clip-rule="evenodd" d="M34.5706 27.6831L31.9516 25.1831C31.6955 24.9388 31.2817 24.9388 31.0257 25.1831C30.7697 25.4275 30.7697 25.8225 31.0257 26.0669L31.8723 26.875L31.1612 27.5538L30.3146 26.7456C30.0586 26.5013 29.6448 26.5013 29.3888 26.7456C29.1328 26.99 29.1328 27.385 29.3888 27.6294L30.2354 28.4375L29.5243 29.1162L28.6777 28.3081C28.4217 28.0638 28.0079 28.0638 27.7519 28.3081C27.4959 28.5525 27.4959 28.9475 27.7519 29.1919L28.5985 30L27.8874 30.6787L27.0408 29.8706C26.7848 29.6262 26.371 29.6262 26.1149 29.8706C25.8589 30.115 25.8589 30.51 26.1149 30.7544L26.9616 31.5625L26.2505 32.2412L25.4039 31.4331C25.1478 31.1887 24.734 31.1887 24.478 31.4331C24.222 31.6775 24.222 32.0725 24.478 32.3169L27.0971 34.8169C27.2248 34.9387 27.3924 35 27.56 35C27.7276 35 27.8953 34.9387 28.0229 34.8169C28.279 34.5725 28.279 34.1775 28.0229 33.9331L27.1763 33.125L27.8874 32.4462L28.734 33.2544C28.8617 33.3762 29.0293 33.4375 29.1969 33.4375C29.3646 33.4375 29.5322 33.3762 29.6599 33.2544C29.9159 33.01 29.9159 32.615 29.6599 32.3706L28.8132 31.5625L29.5243 30.8837L30.3709 31.6919C30.4986 31.8137 30.6662 31.875 30.8339 31.875C31.0015 31.875 31.1691 31.8137 31.2968 31.6919C31.5528 31.4475 31.5528 31.0525 31.2968 30.8081L30.4502 30L31.1612 29.3213L32.0079 30.1294C32.1355 30.2512 32.3032 30.3125 32.4708 30.3125C32.6384 30.3125 32.806 30.2512 32.9337 30.1294C33.1897 29.885 33.1897 29.49 32.9337 29.2456L32.0871 28.4375L32.7982 27.7588L33.6448 28.5669C33.7725 28.6888 33.9401 28.75 34.1077 28.75C34.2753 28.75 34.4429 28.6888 34.5706 28.5669C34.8266 28.3225 34.8266 27.9275 34.5706 27.6831Z" fill="#F8F9FB"/>
<path fill-rule="evenodd" clip-rule="evenodd" d="M32.0377 9.69692H36.7996C36.657 11.4921 35.8858 13.1185 34.6965 14.3749C34.3945 13.5615 33.8379 12.8222 33.334 12.1022C32.7511 11.2694 32.2301 10.4682 32.0377 9.69692ZM29.207 9.69692H30.7414C30.9321 10.8644 31.6381 11.8605 32.2758 12.7714C32.9435 13.7254 33.5196 14.5959 33.6316 15.3155C32.3913 16.2345 30.8694 16.824 29.207 16.9444V9.69692ZM26.4027 9.69692H27.9371V16.9444C26.2747 16.824 24.7528 16.2345 23.5126 15.3155C23.6245 14.5959 24.2006 13.7254 24.8683 12.7714C25.506 11.8605 26.2118 10.8644 26.4027 9.69692ZM20.3445 9.69692H25.1064C24.9141 10.4682 24.393 11.2694 23.8101 12.1022C23.3064 12.8222 22.7496 13.5615 22.4476 14.3749C21.2586 13.1185 20.4872 11.4921 20.3445 9.69692ZM34.7031 3.80685C35.8906 5.0628 36.657 6.69108 36.7996 8.4848H32.0443C32.2381 7.71572 32.753 6.90966 33.334 6.07956C33.8394 5.35755 34.4019 4.62321 34.7031 3.80685ZM22.441 3.80685C22.7424 4.62321 23.3047 5.35755 23.8101 6.07956C24.3913 6.90966 24.9058 7.71572 25.0999 8.4848H20.3445C20.487 6.69108 21.2535 5.0628 22.441 3.80685ZM29.207 1.23737C30.8694 1.35777 32.3913 1.94726 33.6316 2.86605C33.5213 3.58564 32.9448 4.44826 32.2758 5.40401C31.6392 6.3133 30.9338 7.31855 30.7414 8.4848H29.207V1.23737ZM27.9371 1.23737V8.4848H26.4027C26.2104 7.31855 25.5048 6.3133 24.8683 5.40401C24.1994 4.44826 23.6228 3.58564 23.5126 2.86605C24.7528 1.94726 26.2747 1.35777 27.9371 1.23737ZM28.5721 0C23.3198 0 19.0482 4.07735 19.0482 9.09086C19.0482 14.1044 23.3198 18.1817 28.5721 18.1817C33.8244 18.1817 38.0959 14.1044 38.0959 9.09086C38.0959 4.07735 33.8244 0 28.5721 0Z" fill="#F8F9FB"/>
<path fill-rule="evenodd" clip-rule="evenodd" d="M13.0388 24.0357L11.1129 21.5317L12.1022 18.6257L15.1004 18.0671L16.7704 20.4003L17.4677 20.464C17.3805 21.7756 16.9439 22.9978 16.2466 24.0473L15.4871 23.7561L13.0388 24.0357ZM1.52987 20.464L1.77235 20.4013L3.29255 18.2115L5.68607 18.6258L6.67535 21.5318L5.95864 24.0359L3.53307 23.6118L2.7512 24.0476C2.05338 22.9978 1.6171 21.7757 1.52987 20.464ZM15.5488 15.0069L15.0742 15.4746L14.8594 17.5358L11.9617 18.0428L9.19631 16.1249L9.34749 14.1213L12.0789 13.5884L12.5673 12.9381C13.7236 13.3993 14.7421 14.1134 15.5488 15.0069ZM6.4303 12.9381L6.86855 13.5512L8.74279 14.1213L8.59162 16.1249L5.82621 18.0428L3.53322 17.6801L3.64055 15.2398L3.44871 15.0069C4.25537 14.1135 5.27382 13.3993 6.4303 12.9381ZM9.49866 27.5999C8.72586 27.5999 7.97907 27.4926 7.27188 27.2963L7.3718 26.2874L6.45101 24.374L7.1003 21.9464H8.89397H10.6878L12.5465 24.374L11.6441 26.3656L11.7256 27.2963C11.0184 27.4926 10.2715 27.5999 9.49866 27.5999ZM9.49866 10.9091C4.26127 10.9091 0 14.9765 0 19.976C0 24.9756 4.26127 29.0429 9.49866 29.0429C14.7364 29.0429 18.9975 24.9756 18.9975 19.976C18.9975 14.9765 14.7364 10.9091 9.49866 10.9091Z" fill="#F8F9FB"/>
</svg>
